<?xml version="1.0" encoding="utf-8"?>
<svg width="800px" height="800px" viewBox="0 0 192 192" xmlns="http://www.w3.org/2000/svg" fill="none" xmlns:bx="https://boxy-svg.com"><defs><bx:export><bx:file format="svg"/></bx:export></defs><path stroke="#000000" stroke-linejoin="round" stroke-width="12" d="M148 120c0 28.719-23.281 52-52 52s-52-23.281-52-52c0-32 52-98 52-98s52 66 52 98Z" style="fill: rgb(129, 193, 75);"/><path d="M 124.371 169.532 C 125.274 170.03 125.727 170.281 126.365 170.408 C 126.864 170.508 127.583 170.508 128.081 170.408 C 128.718 170.281 129.171 170.03 130.074 169.532 C 138.033 165.137 159.906 151.34 159.906 132.372 L 159.906 111.503 C 159.906 109.346 159.906 108.268 159.469 107.449 C 159.077 106.719 158.472 106.138 157.704 105.76 C 156.841 105.335 155.682 105.323 153.365 105.296 C 141.224 105.16 134.226 104.214 127.223 97.59 C 120.221 104.214 113.222 105.16 101.08 105.296 C 98.764 105.323 97.604 105.335 96.742 105.76 C 95.974 106.138 95.369 106.719 94.977 107.449 C 94.54 108.268 94.54 109.346 94.54 111.503 L 94.54 132.372 C 94.54 151.34 116.413 165.137 124.371 169.532 Z" stroke="#000000" stroke-width="12" stroke-linecap="round" stroke-linejoin="round" style="fill: rgb(170, 170, 170);"/></svg>